<?xml version="1.0" encoding="iso-8859-1"?>
<!-- Generator: Adobe Illustrator 19.0.0, SVG Export Plug-In . SVG Version: 6.00 Build 0)  -->
<svg version="1.1" id="Layer_1" xmlns="http://www.w3.org/2000/svg" xmlns:xlink="http://www.w3.org/1999/xlink" x="0px" y="0px"
	 viewBox="0 0 509.287 509.287" style="enable-background:new 0 0 509.287 509.287;" xml:space="preserve">
<path style="fill:#51D2F4;" d="M509.287,254.644C509.287,113.928,395.359,0,254.644,0S0,113.928,0,254.644
	c0,53.234,16.275,102.739,44.419,143.767H464.53C492.673,357.383,509.287,307.878,509.287,254.644z"/>
<path style="fill:#4485C5;" d="M44.419,398.411c45.775,66.797,122.744,110.877,210.225,110.877s164.111-44.079,210.225-110.877
	H44.419L44.419,398.411z"/>
<path style="fill:#A3742A;" d="M215.65,364.503c-50.522-111.894,17.632-232.943,17.632-232.943h10.172
	c0,0-37.637,146.819,19.666,232.943H215.65z"/>
<path style="fill:#11A34D;" d="M248.879,128.848l19.666-10.172l-4.408-13.902l10.511,9.494l14.919-7.799l-2.034-9.494l7.121,6.442
	L318.05,91.55c0,0-42.384-24.752-82.395,22.718c-20.005-58.66-68.493-51.2-68.493-51.2l17.293,19.327l8.816-3.391l-4.747,8.138
	l11.189,12.885l13.224-5.086l-9.155,11.189l14.58,16.615c-52.217-34.246-85.785,1.356-85.785,1.356l25.43,4.408l4.747-8.138
	l1.017,9.494l16.275,3.052l7.121-11.868l-0.339,14.58l6.103,1.356c-51.878,26.109-44.419,73.918-44.419,73.918l23.057-20.344
	l-3.391-10.85l9.494,6.103l15.258-13.224l-6.103-15.597l13.563,10.85l28.143-24.413l1.356,0.339l1.356,0.339l17.293,32.89
	l16.615-5.425l-11.189,12.546l9.155,17.632l11.189-2.034l-7.799,8.477l13.902,27.465c0,0,24.413-42.045-14.241-85.107l6.103,1.017
	l5.086-13.563l2.374,13.902l16.276,3.052l4.408-8.477l1.695,9.494l25.43,5.086C327.883,161.06,309.573,115.624,248.879,128.848z"/>
<path style="fill:#A3742A;" d="M310.93,364.503c-16.954-75.952,50.183-135.968,50.183-135.968l-6.442-3.052
	c0,0-77.648,55.269-79.343,139.02H310.93z"/>
<path style="fill:#058946;" d="M365.521,228.196l15.258-0.678l1.356-9.833l3.73,8.816l11.528-0.339l1.695-6.442l2.374,6.103
	l17.971-0.339c0,0-18.988-27.804-57.642-10.172c4.747-42.384-27.465-51.878-27.465-51.878l5.086,17.293l6.442,0.339l-5.425,3.73
	l3.052,11.189l9.833,0.678l-9.155,4.408l3.73,14.58c-22.04-36.62-53.234-24.074-53.234-24.074l14.58,10.172l5.425-3.73l-2.034,6.103
	l9.155,6.781l8.138-5.425l-4.408,8.816l3.391,2.713c-40.011,1.017-49.166,32.89-49.166,32.89l20.344-6.103l0.678-7.799l4.069,6.442
	l13.224-3.73l1.017-11.528l5.086,10.85l24.752-6.781l0.678,0.678l0.678,0.678l1.017,25.77l11.868,1.695l-10.511,4.408l0.678,13.563
	l7.46,2.034l-7.121,3.052l0.678,21.362c0,0,27.465-18.988,15.936-56.964l3.391,2.373l7.121-6.781l-2.713,9.155l9.155,6.781
	l5.086-4.069l-1.695,6.103l14.241,10.511C404.853,271.597,407.227,238.029,365.521,228.196z"/>
<path style="fill:#FAD404;" d="M371.285,350.262H138.003c-26.448,0-48.148,21.362-48.148,48.148h329.24
	C419.094,371.963,397.732,350.262,371.285,350.262z"/>
<g>
	<path style="fill:#6EB1E1;" d="M207.852,421.468h-85.785c-2.713,0-5.086-2.374-5.086-5.086s2.374-5.086,5.086-5.086h85.785
		c2.713,0,5.086,2.374,5.086,5.086S210.564,421.468,207.852,421.468z"/>
	<path style="fill:#6EB1E1;" d="M278.379,421.468h-17.971c-2.713,0-5.086-2.374-5.086-5.086s2.374-5.086,5.086-5.086h17.971
		c2.713,0,5.086,2.374,5.086,5.086S281.091,421.468,278.379,421.468z"/>
	<path style="fill:#6EB1E1;" d="M386.882,421.468h-48.826c-2.713,0-5.086-2.374-5.086-5.086s2.373-5.086,5.086-5.086h48.826
		c2.713,0,5.086,2.374,5.086,5.086S389.595,421.468,386.882,421.468z"/>
	<path style="fill:#6EB1E1;" d="M324.832,462.156h-92.567c-2.713,0-5.086-2.374-5.086-5.086s2.373-5.086,5.086-5.086h92.906
		c2.713,0,5.086,2.374,5.086,5.086C329.918,459.783,327.544,462.156,324.832,462.156z"/>
	<path style="fill:#6EB1E1;" d="M176.996,462.156h-24.413c-2.713,0-5.086-2.374-5.086-5.086s2.374-5.086,5.086-5.086h24.413
		c2.713,0,5.086,2.374,5.086,5.086S180.048,462.156,176.996,462.156z"/>
	<path style="fill:#6EB1E1;" d="M387.221,462.156h-24.413c-2.713,0-5.086-2.374-5.086-5.086s2.374-5.086,5.086-5.086h24.413
		c2.713,0,5.086,2.374,5.086,5.086S389.934,462.156,387.221,462.156z"/>
	<path style="fill:#6EB1E1;" d="M245.15,496.403h-24.413c-2.713,0-5.086-2.374-5.086-5.086s2.374-5.086,5.086-5.086h24.413
		c2.713,0,5.086,2.374,5.086,5.086S248.201,496.403,245.15,496.403z"/>
</g>
<g>
</g>
<g>
</g>
<g>
</g>
<g>
</g>
<g>
</g>
<g>
</g>
<g>
</g>
<g>
</g>
<g>
</g>
<g>
</g>
<g>
</g>
<g>
</g>
<g>
</g>
<g>
</g>
<g>
</g>
</svg>
