<?xml version="1.0" encoding="iso-8859-1"?>
<!-- Generator: Adobe Illustrator 19.0.0, SVG Export Plug-In . SVG Version: 6.00 Build 0)  -->
<svg xmlns="http://www.w3.org/2000/svg" xmlns:xlink="http://www.w3.org/1999/xlink" version="1.1" id="Layer_1" x="0px" y="0px" viewBox="0 0 341.453 341.453" style="enable-background:new 0 0 341.453 341.453;" xml:space="preserve" width="512px" height="512px">
<g>
	<g>
		<path d="M197.919,129.684h-54.38v44.744c0,0-78.331,129.29-78.546,129.659c0.425,0.015,210.109,0.026,210.109,0.026    c0.476,0,0.922-0.01,1.352-0.026c-0.21-0.374-78.536-129.659-78.536-129.659V129.684z" fill="#333333"/>
		<path d="M307.707,283.571l-72.448-119.567V29.302h14.863V0H90.547v29.302h15.647v134.697L33.746,283.571    c-19.292,31.836-4.618,57.882,32.604,57.882h208.753C312.325,341.453,326.999,315.407,307.707,283.571z M294.031,313.989    c-1.597,2.842-7.516,6.154-18.929,6.154H66.35c-11.412,0-17.331-3.313-18.929-6.154c-1.597-2.836-1.372-9.62,4.547-19.379    l75.535-124.662V15.759h86.395v97.894h0.046v56.294L289.48,294.61C295.398,304.374,295.629,311.153,294.031,313.989z" fill="#333333"/>
	</g>
</g>
<g>
</g>
<g>
</g>
<g>
</g>
<g>
</g>
<g>
</g>
<g>
</g>
<g>
</g>
<g>
</g>
<g>
</g>
<g>
</g>
<g>
</g>
<g>
</g>
<g>
</g>
<g>
</g>
<g>
</g>
</svg>
