<svg xmlns="http://www.w3.org/2000/svg" viewBox="0 0 180.45 180.49"><defs><style>.cls-1{fill:#fff;}</style></defs><title>logo-white</title><g id="Layer_2" data-name="Layer 2"><g id="Layer_1-2" data-name="Layer 1"><path class="cls-1" d="M90.22,163.91C79,175.46,65.41,181.15,49.38,180.43a50,50,0,0,1-34.14-15.1A50.44,50.44,0,0,1,0,127.56c.24-14.69,6-27.06,16.58-37.29C5.69,79.73-.09,66.94,0,51.77A50.53,50.53,0,0,1,17,13.55a52.17,52.17,0,0,1,73.23,3C103.94,2.81,120.39-2.62,139.56,1.23a49.37,49.37,0,0,1,28.2,16.71,50.71,50.71,0,0,1,12.62,36.94c-.74,13.94-6.45,25.67-16.51,35.37,11.83,11.56,17.55,25.53,16.45,42A49.92,49.92,0,0,1,165.57,165a50.5,50.5,0,0,1-37.89,15.51C112.91,180.27,100.52,174.51,90.22,163.91ZM110.07,36.46c.33-.31.62-.55.87-.82a24,24,0,0,1,41.11,20.64,24.35,24.35,0,0,1-3.13,8.27,34.51,34.51,0,0,1-5.44,6.4L117.72,96.69c-6.3,6.3-12.63,12.56-18.87,18.91-2.28,2.32-4.4,4.79-6.51,7.27a31.86,31.86,0,0,0-2.2,3.34c-.72-1.15-1.39-2.27-2.12-3.37-2.06-3.12-4.8-5.64-7.41-8.27-4.94-5-9.93-9.91-14.89-14.87-1-1-1.93-2-2.87-3l-3.67,3.62a4.24,4.24,0,0,1,.66.45q10.48,10.49,21,21a22.08,22.08,0,0,1,5.11,7.2,20.9,20.9,0,0,1,.82,13,26.47,26.47,0,0,1-7.25,12.83A38.4,38.4,0,0,1,59.82,165.7a38,38,0,0,1-39-15.49,36.91,36.91,0,0,1-6.63-18.06,37.88,37.88,0,0,1,2.32-17.25,39,39,0,0,1,9-13.71q7.33-7.33,14.68-14.64L56.7,70,70.92,55.81c1-1,2-1.91,2.95-2.88l-3.54-3.43c-.09.08-.24.19-.36.31l-5.29,5.26-9.6,9.61-9.55,9.55-9.61,9.6C32.44,87.31,29,90.75,25.52,94.24c-2.3,2.34-4.7,4.61-6.79,7.13a41.18,41.18,0,0,0-9.19,20.81,42.81,42.81,0,0,0,2.88,23,42.15,42.15,0,0,0,12.19,16.42,41.65,41.65,0,0,0,23.59,9.65A42.09,42.09,0,0,0,78,162.66a38.46,38.46,0,0,0,10.85-12.09c.38-.7.78-1.39,1.22-2.15A44.07,44.07,0,0,0,134.82,171a42.94,42.94,0,0,0,22.62-74.12l-3.65,3.58c.8.7,1.66,1.34,2.38,2.1a36.94,36.94,0,0,1,9.63,18.93,38,38,0,0,1-45,44.28,36.73,36.73,0,0,1-16.94-8.29,53.31,53.31,0,0,1-5.39-5.27A23.5,23.5,0,0,1,93.14,141c-1.3-6.73.24-12.69,5-17.7,3.09-3.27,6.33-6.4,9.51-9.58l14.49-14.5,15.63-15.61c3.24-3.24,6.47-6.49,9.73-9.7A32.77,32.77,0,0,0,154,65.6a28.58,28.58,0,0,0,2.28-21.29,28.91,28.91,0,0,0-33.35-20.65,27.58,27.58,0,0,0-12.56,5.83c-1.32,1.08-2.53,2.3-3.75,3.41Zm-9.91-9.94.29-.28a39.64,39.64,0,0,1,12.89-9.1,38,38,0,0,1,51.24,46.68,37.24,37.24,0,0,1-8.92,14.75c-4.3,4.39-8.67,8.71-13,13.05q-9,9-18,18-9.13,9.13-18.24,18.27a14.92,14.92,0,0,0-4.24,7.24,12,12,0,0,0,1.79,9.2,27.15,27.15,0,0,0,8.22,8.08A28.91,28.91,0,0,0,157.33,130a28.56,28.56,0,0,0-4.63-17.29,34.47,34.47,0,0,0-5.1-6l-3.52,3.38c.12.13.23.28.36.4a25.26,25.26,0,0,1,4.89,6.12A24,24,0,0,1,115.92,149a32.47,32.47,0,0,1-5.68-4.69,10.66,10.66,0,0,1-3.13-4.79,7.31,7.31,0,0,1,1.83-7c2-2.22,4.11-4.28,6.21-6.38q11.6-11.63,23.23-23.23,9-9,18.06-18a56.25,56.25,0,0,0,8.26-9.73A43,43,0,0,0,167,33.16,43,43,0,0,0,115.93,11a42.75,42.75,0,0,0-16.38,9.3c-1,.9-1.91,1.88-2.78,2.74Zm-20,32.86c-2.48,2.51-5,5.09-7.57,7.66q-6.05,6.08-12.12,12.14L45.86,93.73c-4.31,4.31-8.57,8.67-12.94,12.91-3.69,3.58-6.76,7.58-8.29,12.52-3.16,10.25-1.59,19.71,5.35,28a27.8,27.8,0,0,0,19.19,10.06,28.39,28.39,0,0,0,17.68-4,31.11,31.11,0,0,0,7.59-6.46,12.78,12.78,0,0,0,3.33-9,16,16,0,0,0-4.06-9.88c-2-2.39-4.22-4.59-6.42-6.81C63.2,117,59,112.85,54.9,108.72l-2-2-3.49,3.4c.08.09.14.17.21.25l7,7,9.79,9.76c2.19,2.19,4.4,4.39,5.78,7.23,1.24,2.55,1.43,5.12-.2,7.56A22.73,22.73,0,0,1,69.39,145,23.84,23.84,0,0,1,58,151.71a24,24,0,0,1-29.87-26,21.58,21.58,0,0,1,4.16-10.85,72.11,72.11,0,0,1,5.81-6.39c2.82-2.9,5.73-5.72,8.59-8.58L58.11,88.45,70.25,76.32l9.66-9.65c1.27-1.27,2.56-2.52,3.85-3.79Zm50.93,11-.11-.18-6.79-6.8L113.56,52.89l-9.48-9.5Q96.73,36,89.35,28.68c-3-3-6-6.13-9.2-9A41.09,41.09,0,0,0,58.26,9.58a43,43,0,0,0-32.6,8.55A42.12,42.12,0,0,0,12.07,36.2,42.68,42.68,0,0,0,9.91,60.41,41.85,41.85,0,0,0,19.3,79.86c1.16,1.37,2.43,2.64,3.65,3.94l3.5-3.44c-1.09-1.18-2.19-2.33-3.24-3.52A36.61,36.61,0,0,1,15.29,62a38.22,38.22,0,0,1-1-14.42,37.81,37.81,0,0,1,19-28.6,38.11,38.11,0,0,1,32.66-2.26,34.6,34.6,0,0,1,10.63,6.41c2.48,2.23,4.81,4.62,7.18,7q6.07,6,12.1,12.06T108,54.26q8.2,8.21,16.4,16.41c1.08,1.08,2.09,2.22,3.13,3.32ZM90.19,111.19l20.91-20.9L90.28,69.45,69.34,90.34Zm-53.64-41a4.91,4.91,0,0,1-.91-.62,31.55,31.55,0,0,1-2.85-3.2C27.56,59,26.38,51,29.95,42.7,33.68,34,40.53,29.15,50,28.16a23,23,0,0,1,14.52,3.4,32.16,32.16,0,0,1,6.06,5.1q7.62,7.65,15.28,15.27L100.47,66.6l14.88,14.88c.78.78,1.56,1.54,2.29,2.25l3.52-3.48c-1.18-1.16-2.36-2.33-3.54-3.5L100.31,59.47,87.4,46.54C83.19,42.32,79,38.12,74.75,33.88a38.08,38.08,0,0,0-8.91-7.23,28.57,28.57,0,0,0-19.47-3A28.06,28.06,0,0,0,29.13,34.35a28.46,28.46,0,0,0-5.69,22.07A27.12,27.12,0,0,0,28.59,69c1.28,1.74,2.81,3.29,4.24,4.95Zm80.11-27.42,21,21c4.78-4.32,6.87-9.63,5-16a14.05,14.05,0,0,0-11.12-10.32C125.52,36.19,120.61,38.38,116.66,42.81Zm0,94.84c3.76,4.31,8.48,6.54,14.22,5.51,6.4-1.15,10.61-5,12.09-11.45,1.4-6.1-.82-11-5.29-15.07Zm-52.8.06-21-21c-4.39,3.85-6.52,8.65-5.42,14.53a14.06,14.06,0,0,0,10.14,11.46C54,144.7,59.41,142.54,63.81,137.72Zm0-94.86c-4.44-4.9-9.86-7-16.35-5A14.1,14.1,0,0,0,37.24,50.21c-.73,5.55,1.42,10.07,5.6,13.67Z"/><polygon class="cls-1" points="100.67 90.24 98.55 88.12 90.23 96.43 84.04 90.24 90.23 84.05 98.55 92.36 100.67 90.24 98.55 88.12 100.67 90.24 102.79 88.12 90.23 75.57 75.56 90.24 90.23 104.92 104.91 90.24 102.79 88.12 100.67 90.24"/></g></g></svg>